<?xml version="1.0" standalone="no"?>
<!DOCTYPE svg PUBLIC "-//W3C//DTD SVG 20010904//EN"
 "http://www.w3.org/TR/2001/REC-SVG-20010904/DTD/svg10.dtd">
<svg version="1.0" xmlns="http://www.w3.org/2000/svg"
 width="640.000000pt" height="640.000000pt" viewBox="0 0 640.000000 640.000000"
 preserveAspectRatio="xMidYMid meet">
<metadata>
Created by potrace 1.14, written by Peter Selinger 2001-2017
</metadata>
<g transform="translate(0.000000,640.000000) scale(0.100000,-0.100000)"
fill="#000000" stroke="none">
<path d="M0 3200 l0 -3200 3200 0 3200 0 0 3200 0 3200 -3200 0 -3200 0 0
-3200z m2645 1712 c118 -60 307 -291 521 -635 88 -140 82 -145 -12 -9 -93 133
-223 308 -315 422 -119 148 -201 207 -303 217 -82 8 -138 -11 -203 -70 -92
-85 -132 -196 -133 -372 0 -62 -3 -85 -10 -75 -7 11 -10 2 -10 -33 0 -33 4
-46 11 -41 8 5 9 -20 4 -87 -4 -59 -3 -118 5 -159 13 -76 66 -188 115 -245
l34 -40 1 40 c0 22 9 73 20 113 18 64 19 76 6 105 -7 19 -26 43 -42 55 -16 12
-23 22 -15 22 7 0 29 -16 49 -36 40 -40 43 -39 83 38 23 44 13 54 -37 36 -32
-11 -37 -11 -49 6 -8 10 -18 15 -24 11 -17 -10 -13 11 4 25 9 8 29 10 52 6
123 -19 118 -20 161 9 33 22 48 26 76 21 44 -8 54 -33 20 -48 -20 -9 -30 -9
-45 0 -15 10 -26 8 -56 -8 -21 -11 -45 -20 -54 -20 -11 0 -19 -11 -23 -32 -3
-18 -20 -53 -36 -78 -31 -47 -38 -87 -19 -122 14 -26 6 -33 -14 -13 -14 13
-17 10 -28 -39 -11 -49 -10 -58 8 -93 24 -46 95 -92 153 -100 55 -8 97 15 133
70 34 52 34 93 1 162 l-25 55 -24 -28 c-27 -32 -45 -24 -21 10 24 34 20 52
-24 103 -38 44 -51 75 -31 75 5 0 11 -8 13 -18 3 -10 19 -29 37 -41 29 -21 31
-21 31 -4 0 11 16 34 35 53 40 39 47 32 10 -12 -36 -43 -33 -87 12 -167 29
-53 36 -76 36 -119 0 -61 2 -60 49 28 19 36 55 101 79 145 36 66 43 89 44 135
0 48 -6 65 -43 127 -35 58 -46 86 -53 143 -7 58 -32 164 -65 283 -3 9 -1 17 4
17 9 0 71 -179 88 -253 4 -16 18 -34 35 -42 53 -28 74 -82 44 -115 -13 -14
-11 -22 10 -65 13 -28 25 -65 25 -82 0 -18 3 -33 6 -33 3 0 20 11 38 25 52 39
128 52 196 32 31 -9 67 -28 80 -42 l25 -26 -55 25 c-134 62 -249 14 -345 -144
-90 -147 -241 -448 -290 -575 -48 -125 -52 -138 -89 -261 -23 -79 -58 -165
-100 -245 -102 -198 -146 -352 -171 -609 -16 -159 -66 -359 -144 -583 -34 -98
-36 -115 -17 -169 16 -45 12 -49 -8 -11 -14 30 -27 153 -15 153 4 0 16 24 27
53 60 155 110 368 127 547 19 194 56 371 100 475 19 45 113 235 125 250 4 6
22 57 39 115 68 218 105 319 162 439 33 68 59 128 59 133 0 5 -16 0 -36 -12
-43 -27 -116 -30 -163 -7 -19 9 -40 17 -48 17 -22 0 -118 75 -155 122 -114
142 -149 268 -117 418 8 39 8 58 -2 81 -15 38 -14 81 2 111 8 13 12 50 11 88
-3 74 16 175 46 242 37 84 130 167 212 190 53 15 143 2 205 -30z m-75 -531 c0
-12 -74 -41 -103 -41 -33 0 -67 11 -67 21 0 5 21 9 48 10 26 1 58 5 72 9 35
11 50 11 50 1z m134 -83 c35 -34 56 -78 37 -78 -6 0 -11 6 -11 13 0 20 -51 65
-82 72 -16 4 -48 0 -79 -10 -41 -14 -72 -16 -138 -12 -59 4 -98 2 -123 -7 -45
-16 -51 -3 -8 19 20 10 60 15 132 16 57 0 112 4 123 9 11 5 41 9 68 9 40 1 52
-4 81 -31z m-720 -159 c-123 -183 -101 -580 56 -1014 12 -33 24 -94 27 -135 5
-67 2 -83 -22 -140 -85 -204 -87 -304 -14 -625 42 -182 59 -360 40 -425 -5
-15 -10 23 -13 100 -6 121 -17 181 -83 455 -23 96 -26 126 -23 235 4 120 6
129 47 230 41 97 43 109 38 170 -4 36 -26 126 -51 200 -24 74 -53 178 -64 230
-58 269 -51 538 19 675 17 33 66 95 75 95 2 0 -13 -23 -32 -51z m1331 -59 c10
-11 16 -20 13 -20 -3 0 -13 9 -23 20 -10 11 -16 20 -13 20 3 0 13 -9 23 -20z
m449 -57 c8 -4 -40 -8 -114 -8 -71 0 -127 2 -124 4 19 19 205 23 238 4z
m-1274 -18 c15 -14 18 -14 30 0 17 20 57 19 68 -2 12 -22 5 -43 -14 -43 -8 0
-11 6 -7 16 4 12 1 15 -13 12 -10 -2 -20 -13 -22 -25 -2 -14 -8 -20 -18 -16
-8 3 -14 0 -14 -6 0 -6 -5 -11 -11 -11 -6 0 -9 7 -5 15 7 19 -3 45 -16 45 -6
0 -17 -8 -24 -17 -12 -17 -13 -17 -19 0 -8 20 11 47 33 47 8 0 23 -7 32 -15z
m1733 -31 c141 -36 269 -136 334 -259 67 -128 107 -333 106 -540 -1 -133 -9
-193 -50 -395 -20 -103 -22 -250 -4 -421 10 -91 11 -163 5 -255 l-9 -129 -6
190 c-4 105 -12 222 -18 260 -25 149 -24 194 4 345 14 80 31 179 37 220 13 99
3 406 -16 492 -39 169 -109 306 -191 373 -105 86 -267 131 -440 121 -55 -3
-111 -9 -125 -12 -17 -5 -22 -3 -15 4 15 16 47 19 194 21 93 1 152 -4 194 -15z
m-542 -196 c35 -40 68 -76 74 -80 5 -4 7 -10 4 -13 -4 -3 -33 25 -65 62 -32
37 -72 80 -89 96 -22 20 -24 25 -9 18 12 -6 50 -43 85 -83z m-1009 60 c-9 -9
-48 -14 -110 -15 -53 -1 -115 -4 -137 -8 -45 -8 -40 4 8 22 46 17 255 17 239
1z m1468 -438 c-8 -5 -19 -10 -25 -10 -5 0 -3 5 5 10 8 5 20 10 25 10 6 0 3
-5 -5 -10z m-67 -42 c-32 -35 -103 -140 -103 -153 0 -4 -27 -63 -61 -131 -72
-147 -137 -220 -241 -271 -75 -37 -186 -57 -263 -48 -107 14 -340 94 -322 112
4 3 12 1 19 -5 7 -5 45 -20 83 -32 211 -65 332 -66 464 -4 108 50 183 135 264
299 63 129 107 200 144 233 20 17 39 32 42 32 3 0 -9 -15 -26 -32z m-844 -125
c-44 -66 -131 -164 -213 -243 -37 -36 -75 -80 -83 -98 -19 -44 -10 -102 33
-213 18 -47 38 -116 44 -152 23 -146 -24 -326 -123 -475 -56 -83 -175 -207
-253 -262 -36 -25 -19 -5 62 75 126 124 197 226 244 347 55 143 57 310 5 445
-15 37 -31 80 -37 95 -13 35 -13 130 0 154 6 11 54 60 107 109 53 48 128 128
167 176 39 49 72 89 75 89 2 0 -10 -21 -28 -47z m761 -359 c0 -150 19 -249 72
-368 53 -121 76 -210 88 -346 12 -142 12 -160 1 -140 -5 8 -11 52 -15 98 -10
124 -41 247 -91 357 -69 152 -89 268 -78 447 8 135 23 104 23 -48z m-704 -439
c-3 -60 -12 -141 -20 -180 -24 -111 -76 -234 -113 -272 -32 -31 -37 -33 -106
-33 -40 0 -79 5 -87 10 -10 7 8 10 61 10 63 0 81 4 104 22 75 59 157 393 141
575 -3 36 -3 77 1 91 12 46 25 -101 19 -223z m1311 -502 c-3 -10 -5 -4 -5 12
0 17 2 24 5 18 2 -7 2 -21 0 -30z m-2540 -205 c-3 -7 -5 -2 -5 12 0 14 2 19 5
13 2 -7 2 -19 0 -25z m523 29 c0 -2 -10 -12 -22 -23 l-23 -19 19 23 c18 21 26
27 26 19z m24 -129 c-8 -57 -28 -87 -69 -104 -52 -21 -55 -17 -8 11 34 21 45
35 54 68 6 23 13 48 15 55 8 29 14 8 8 -30z m-459 -158 c3 -6 -1 -7 -9 -4 -18
7 -21 14 -7 14 6 0 13 -4 16 -10z m42 -16 c-3 -3 -12 -4 -19 -1 -8 3 -5 6 6 6
11 1 17 -2 13 -5z"/>
<path d="M2840 4369 c0 -27 33 -83 43 -72 15 14 6 51 -18 73 l-25 23 0 -24z"/>
</g>
</svg>
